<?xml version="1.0" encoding="UTF-8"?>
<svg id="_3decision" data-name="3decision" xmlns="http://www.w3.org/2000/svg" xmlns:xlink="http://www.w3.org/1999/xlink" viewBox="0 0 324.47942 273.95939">
  <defs>
    <linearGradient id="Dégradé_sans_nom_110" data-name="Dégradé sans nom 110" x1="-12766.0578" y1="-2575.26896" x2="-12733.99821" y2="-2538.51274" gradientTransform="translate(6031.92502 8947.45351) rotate(67.96139) scale(.81698 -.81698)" gradientUnits="userSpaceOnUse">
      <stop offset="0" stop-color="#fff"/>
      <stop offset=".28763" stop-color="#e4e8e9"/>
      <stop offset=".90181" stop-color="#a0adb2"/>
      <stop offset="1" stop-color="#95a4a9"/>
    </linearGradient>
    <linearGradient id="Dégradé_sans_nom_111" data-name="Dégradé sans nom 111" x1="-12707.86785" y1="-2663.68803" x2="-12675.65886" y2="-2626.76053" gradientTransform="translate(6031.92502 8947.45351) rotate(67.96139) scale(.81698 -.81698)" gradientUnits="userSpaceOnUse">
      <stop offset="0" stop-color="#95a4a9"/>
      <stop offset=".09819" stop-color="#a0adb2"/>
      <stop offset=".71237" stop-color="#e4e8e9"/>
      <stop offset="1" stop-color="#fff"/>
    </linearGradient>
    <linearGradient id="Dégradé_sans_nom_570" data-name="Dégradé sans nom 570" x1="-6597.04138" y1="-9280.77512" x2="-6597.04138" y2="-9196.43255" gradientTransform="translate(5137.99658 7692.45757) rotate(112.96139) scale(.81698 -.81698) skewX(-2.67503)" gradientUnits="userSpaceOnUse">
      <stop offset=".17157" stop-color="#f28c2d"/>
      <stop offset=".2949" stop-color="#e3832c"/>
      <stop offset=".52977" stop-color="#bd6b29"/>
      <stop offset=".84904" stop-color="#814625"/>
      <stop offset="1" stop-color="#623324"/>
    </linearGradient>
  </defs>
  <g id="_3decision-2" data-name="3decision">
    <g>
      <path d="M38.02787,203.79534c2.49152-2.05874,5.71647-3.08878,9.6789-3.08878,2.62769,0,4.88192.47053,6.76539,1.41159s3.3045,2.22727,4.26443,3.85322c.96128,1.62865,1.4426,3.46224,1.4426,5.50075,0,2.47129-.72669,4.60958-2.17738,6.4135-1.45204,1.80392-3.51077,2.9216-6.17621,3.35303v.29391c2.78273.55008,4.99921,1.75539,6.64674,3.61863s2.47129,4.30353,2.47129,7.32355c0,3.37326-1.12846,6.12902-3.38269,8.26596-2.25693,2.13828-5.52098,3.20608-9.79619,3.20608-4.07972,0-7.43141-1.06779-10.06044-3.20608-2.62634-2.13693-4.1377-5.16639-4.52868-9.08972h4.00018c.35323,2.62904,1.45069,4.75653,3.29506,6.38384,1.84167,1.62731,4.27387,2.44163,7.29389,2.44163,2.98092,0,5.26616-.78467,6.85437-2.354,1.58821-1.56798,2.38366-3.56875,2.38366-6.00094,0-5.9605-4.29544-8.94142-12.88497-8.94142h-1.29429v-3.47168h1.35227c8.00171,0,12.00189-2.60746,12.00189-7.82374,0-2.27445-.74422-4.10804-2.23535-5.50075s-3.60785-2.0884-6.35283-2.0884c-2.66813,0-4.87518.69568-6.61978,2.0884s-2.77464,3.34359-3.08743,5.85399h-4.00153c.27504-3.56875,1.65697-6.38384,4.14714-8.44258Z" style="fill: #f28c2d;"/>
      <path d="M68.03798,218.85635c1.33339-2.49017,3.16698-4.41274,5.50075-5.76635,2.33378-1.35227,4.9709-2.02908,7.91272-2.02908,2.82318,0,5.37267.68625,7.64712,2.05874,2.2758,1.37384,3.94221,3.15754,5.00191,5.3538v-18.35472h4.11747v43.53414h-4.11747v-7.17794c-.98151,2.2367-2.58859,4.07029-4.82394,5.50075-2.23535,1.43316-4.86439,2.14772-7.88441,2.14772-2.94182,0-5.57895-.68625-7.91138-2.05874-2.33512-1.37249-4.15792-3.31393-5.47109-5.82433-1.31587-2.50904-1.9711-5.41312-1.9711-8.70683,0-3.29506.66602-6.187,1.99942-8.67717ZM92.51228,220.76813c-1.0597-1.96167-2.50095-3.47168-4.3251-4.53003-1.8228-1.0597-3.83435-1.58821-6.02926-1.58821-2.2758,0-4.31432.50963-6.11824,1.52889-1.80527,1.02061-3.22765,2.50095-4.26578,4.4424-1.03948,1.94144-1.55855,4.24556-1.55855,6.91234,0,2.62769.51907,4.9318,1.55855,6.91234,1.03813,1.98054,2.46051,3.4919,4.26578,4.53003,1.80392,1.03948,3.84244,1.55855,6.11824,1.55855,2.19491,0,4.20646-.5285,6.02926-1.58821,1.82415-1.05836,3.2654-2.56837,4.3251-4.53003,1.05836-1.96032,1.58821-4.23612,1.58821-6.82471s-.52985-4.86169-1.58821-6.82336Z" style="fill: #f28c2d;"/>
      <path d="M135.35613,229.18105h-26.64899c.1173,2.4322.70647,4.50981,1.76348,6.23553,1.0597,1.72573,2.45107,3.02946,4.17814,3.91254,1.72438.88174,3.60785,1.32396,5.64771,1.32396,2.66679,0,4.91293-.64715,6.73573-1.94144,1.82415-1.29429,3.03081-3.0389,3.61863-5.2365h4.35341c-.78601,3.13866-2.46186,5.69759-5.03022,7.67679-2.56971,1.98189-5.79467,2.97148-9.67755,2.97148-3.02002,0-5.72725-.67681-8.119-2.02908-2.39175-1.35362-4.26578-3.27484-5.61805-5.76635-1.35227-2.49017-2.02908-5.40233-2.02908-8.73649,0-3.33281.66602-6.25441,1.99942-8.7648s3.19664-4.43161,5.58839-5.76635c2.39175-1.33204,5.11921-1.99942,8.17832-1.99942s5.73534.66737,8.03002,1.99942c2.29468,1.33474,4.0595,3.12923,5.29582,5.38346,1.23497,2.25558,1.85246,4.75653,1.85246,7.50152,0,1.41159-.04045,2.49017-.11864,3.23574ZM129.85538,219.70843c-.99903-1.68528-2.36209-2.9607-4.08781-3.82356s-3.60919-1.29429-5.64771-1.29429c-3.05912,0-5.66793.98016-7.82374,2.94182-2.15851,1.96167-3.35438,4.72687-3.58897,8.29427h22.59083c.03775-2.39175-.44222-4.43161-1.4426-6.11824Z" style="fill: #fff;"/>
      <path d="M142.05141,218.85635c1.33339-2.49017,3.17641-4.41274,5.53041-5.76635,2.354-1.35227,5.03966-2.02908,8.05968-2.02908,3.96108,0,7.22648.98016,9.79619,2.94182,2.56702,1.96167,4.22533,4.6271,4.96955,8.00036h-4.41139c-.55008-2.31355-1.73651-4.12691-3.55931-5.44143-1.82415-1.31452-4.08916-1.9711-6.79505-1.9711-2.15716,0-4.0986.49075-5.82433,1.47091s-3.08878,2.44163-4.08781,4.38307c-1.00038,1.94144-1.50192,4.32375-1.50192,7.14693,0,2.82453.50154,5.21763,1.50192,7.17794.99903,1.96167,2.36209,3.43258,4.08781,4.41274s3.66717,1.47091,5.82433,1.47091c2.70588,0,4.9709-.65658,6.79505-1.9711,1.8228-1.31452,3.00924-3.1481,3.55931-5.50075h4.41139c-.74422,3.29371-2.41062,5.94162-4.99921,7.94239-2.58859,1.99942-5.8459,2.9998-9.76653,2.9998-3.02002,0-5.70568-.67681-8.05968-2.02908-2.354-1.35362-4.19702-3.27484-5.53041-5.76635-1.33339-2.49017-2.00076-5.40233-2.00076-8.73649,0-3.33281.66737-6.24497,2.00076-8.73514Z" style="fill: #fff;"/>
      <path d="M176.34348,204.58945c-.58783-.58783-.88309-1.31317-.88309-2.17738,0-.86151.29526-1.57742.88309-2.14637.58917-.56895,1.29429-.85343,2.11806-.85343s1.52889.28448,2.11806.85343.88309,1.28486.88309,2.14637c0,.86421-.29391,1.58956-.88309,2.17738s-1.29429.88174-2.11806.88174-1.52889-.29391-2.11806-.88174ZM180.52162,211.53145v32.12143h-4.11882v-32.12143h4.11882Z" style="fill: #fff;"/>
      <path d="M190.53892,241.56448c-2.33512-1.70685-3.63886-4.02984-3.91254-6.97166h4.23612c.19549,1.80392,1.04892,3.2654,2.55893,4.38307s3.53909,1.67719,6.08858,1.67719c2.23535,0,3.99074-.52985,5.26616-1.58956,1.27272-1.05836,1.91178-2.37153,1.91178-3.94086,0-1.09745-.35323-2.00076-1.0597-2.70588-.70647-.70647-1.59899-1.26598-2.67622-1.67719-1.07993-.41121-2.54005-.85343-4.38307-1.32396-2.39175-.62692-4.33319-1.2552-5.82433-1.88212s-2.75577-1.55989-3.7939-2.79487c-1.04083-1.23497-1.55855-2.89194-1.55855-4.9709,0-1.56798.46918-3.02002,1.41024-4.35341s2.2758-2.39175,4.00153-3.17641,3.68604-1.177,5.88365-1.177c3.4501,0,6.23419.87365,8.35359,2.61825,2.11671,1.7446,3.25461,4.14714,3.41101,7.20626h-4.11747c-.11864-1.88212-.85208-3.40157-2.20569-4.55969-1.35362-1.15678-3.20608-1.73516-5.56007-1.73516-2.07896,0-3.76424.49075-5.05853,1.47091s-1.94144,2.19626-1.94144,3.64694c0,1.25654.38155,2.28524,1.14599,3.08878.76579.80489,1.71494,1.43181,2.85284,1.88212,1.1379.45165,2.66679.95185,4.58935,1.50057,2.31355.62827,4.15792,1.23632,5.53041,1.82415s2.54814,1.45069,3.52965,2.58859c.98016,1.1379,1.49114,2.64656,1.52889,4.53003,0,1.72573-.46918,3.2654-1.41024,4.61767-.94241,1.35362-2.25693,2.42276-3.94221,3.20608-1.68798.78467-3.62942,1.177-5.82433,1.177-3.68739,0-6.69797-.85343-9.0304-2.55893Z" style="fill: #fff;"/>
      <path d="M217.06387,204.58945c-.58783-.58783-.88174-1.31317-.88174-2.17738,0-.86151.29391-1.57742.88174-2.14637.58917-.56895,1.29429-.85343,2.11941-.85343.82242,0,1.52889.28448,2.11671.85343.58917.56895.88309,1.28486.88309,2.14637,0,.86421-.29391,1.58956-.88309,2.17738-.58783.58783-1.29429.88174-2.11671.88174-.82511,0-1.53023-.29391-2.11941-.88174ZM221.24202,211.53145v32.12143h-4.11882v-32.12143h4.11882Z" style="fill: #fff;"/>
      <path d="M235.14355,242.09433c-2.41332-1.35362-4.31432-3.27484-5.70703-5.76635-1.39271-2.49017-2.0884-5.40233-2.0884-8.73649,0-3.33281.70647-6.24497,2.11806-8.73514s3.33281-4.41274,5.765-5.76635c2.43085-1.35227,5.15696-2.02908,8.17698-2.02908s5.75691.67681,8.20799,2.02908c2.45107,1.35362,4.37229,3.27618,5.765,5.76635,1.39137,2.49017,2.0884,5.40233,2.0884,8.73514,0,3.29506-.70512,6.19778-2.11806,8.70818-1.41159,2.51039-3.35303,4.44105-5.82433,5.79467-2.46995,1.35227-5.21628,2.02908-8.23495,2.02908-3.02137,0-5.73669-.67681-8.14866-2.02908ZM249.17451,239.09319c1.80257-.95994,3.26405-2.41197,4.38307-4.35341,1.11768-1.94144,1.67719-4.32375,1.67719-7.14828,0-2.82318-.55008-5.20549-1.64753-7.14693-1.0988-1.94144-2.55084-3.39213-4.35476-4.35341s-3.76424-1.44125-5.8823-1.44125-4.07972.47997-5.8823,1.44125c-1.80527.96128-3.24652,2.41197-4.3251,4.35341s-1.61787,4.32375-1.61787,7.14693c0,2.82453.53929,5.20684,1.61787,7.14828s2.51039,3.39348,4.29544,4.35341c1.7837.96128,3.73458,1.44125,5.85399,1.44125,2.11671,0,4.07703-.47997,5.8823-1.44125Z" style="fill: #fff;"/>
      <path d="M290.18478,214.50159c2.43085,2.37422,3.64694,5.81624,3.64694,10.32604v18.82525h-4.05815v-18.35472c0-3.49055-.87365-6.15734-2.61825-8.00171-1.74595-1.84302-4.12826-2.76521-7.14828-2.76521-3.09822,0-5.56951.98151-7.41253,2.94182-1.84437,1.96167-2.76521,4.84417-2.76521,8.64885v17.53095h-4.11882v-32.12143h4.11882v5.47109c1.01926-1.96032,2.49017-3.46089,4.41274-4.50037,1.91987-1.03948,4.09725-1.55855,6.52945-1.55855,3.84379,0,6.9811,1.18644,9.4133,3.55796Z" style="fill: #fff;"/>
    </g>
    <g id="Nouveau_symbole_83" data-name="Nouveau symbole 83">
      <g>
        <path d="M203.81691,89.9785c.2304-.5438,1.50971-3.53343,1.50971-3.53343,1.89341-4.96271,3.76415-14.20106-5.03958-24.67465,0,0-22.04578-22.26724-18.08012-31.6273,1.58065-3.73076-11.7411,27.72436-12.46927,29.44304,0,0-4.65318,11.54012,2.63462,21.69176,9.21666,12.83849,23.57099,27.28454,19.63102,36.58393-6.84382,16.1533,10.923-25.78127,11.81361-27.88335Z" style="fill: url(#Dégradé_sans_nom_110);"/>
        <path d="M154.41295,163.16888c.89061-2.10207,6.90445-16.04741-3.52987-28.20808,0,0-22.04578-22.26724-18.08012-31.6273,1.58065-3.73076-11.7411,27.72436-12.46927,29.44304,0,0-6.70586,8.94307,2.63462,21.69176,9.34047,12.74869,23.57099,27.28454,19.63102,36.58393,0,0,10.923-25.78127,11.81361-27.88335Z" style="fill: url(#Dégradé_sans_nom_111);"/>
        <path d="M134.88218,97.88472c.89061-2.10207,4.35047-10.12611,16.22865-9.04392l37.72123,5.35544s12.40701,1.89669,16.37267-7.46337c1.58065-3.73076-12.72055,30.01181-13.44872,31.73049-.98843,2.33297-4.41047,10.37319-15.73414,9.22671,0,0-34.79821-5.0393-38.80925-5.47097s-12.37526-.62585-16.31523,8.67354c0,0,13.09418-30.90584,13.98479-33.00792Z" style="fill: #f28c2d;"/>
        <path d="M133.02024,102.2794c.89061-2.10207,4.35047-10.12611,16.22865-9.04392,0,0,33.34846,4.71407,36.27723,5.14676s13.851,2.10537,17.81667-7.25469c1.58065-3.73076-12.72055,30.01181-13.44872,31.73049-.98843,2.33297-4.41047,10.37319-15.73414,9.22671,0,0-34.79821-5.0393-38.80925-5.47097-4.01104-.43167-12.37526-.62585-16.31523,8.67354,0,0,13.09418-30.90584,13.98479-33.00792Z" style="fill: url(#Dégradé_sans_nom_570);"/>
      </g>
    </g>
  </g>
</svg>